<svg width="38" height="38" viewBox="0 0 38 38" fill="none" xmlns="http://www.w3.org/2000/svg">
<path d="M19 17.4167V26.9167M14.25 22.1667H23.75M34.8333 30.0833C34.8333 30.9232 34.4997 31.7286 33.9058 32.3225C33.3119 32.9164 32.5065 33.25 31.6666 33.25H6.33329C5.49344 33.25 4.68799 32.9164 4.09412 32.3225C3.50026 31.7286 3.16663 30.9232 3.16663 30.0833V7.91667C3.16663 7.07681 3.50026 6.27136 4.09412 5.6775C4.68799 5.08363 5.49344 4.75 6.33329 4.75H14.25L17.4166 9.5H31.6666C32.5065 9.5 33.3119 9.83363 33.9058 10.4275C34.4997 11.0214 34.8333 11.8268 34.8333 12.6667V30.0833Z" stroke="white" stroke-width="3" stroke-linecap="round" stroke-linejoin="round"/>
</svg>
